<?xml version="1.0" encoding="UTF-8"?>
<svg id="Camada_2" data-name="Camada 2" xmlns="http://www.w3.org/2000/svg" viewBox="0 0 609.15 67.92">
  <defs>
    <style>
      .cls-1 {
        fill: #2021d4;
      }
    </style>
  </defs>
  <g id="Camada_1-2" data-name="Camada 1">
    <g>
      <path class="cls-1" d="M227.95,1.27l20.06,65.94c.13.42.51.7.94.7h14.27c.66,0,1.14-.64.94-1.27L244.12.7c-.13-.42-.51-.7-.94-.7h-14.28c-.66,0-1.14.64-.94,1.27Z"/>
      <path class="cls-1" d="M203.03,54.95h14.92c.39,0,.75-.23.91-.59l11.71-27.03c.28-.65-.2-1.38-.91-1.38h-14.92c-.39,0-.75.23-.91.59l-11.71,27.03c-.28.65.2,1.38.91,1.38Z"/>
      <path d="M75.4,25.3c0-6.65-4.65-11.63-13.63-11.63h-11.83c-.54,0-.99.44-.99.99v20.49h-24.87c-.54,0-.99.44-.99.99h0c0,.54.44.99.99.99h15.06c-1.11,9.17-8.42,15.82-17.94,15.82-10.82,0-19.04-8.28-19.04-18.99S10.22,15.02,20.88,15.02c7.98,0,14.49,4.69,17.33,11.55.16.37.51.62.92.62h.12c.7,0,1.19-.71.92-1.36-3.24-7.78-10.53-12.87-19.29-12.87C9.03,12.97,0,22.22,0,33.96s9.19,20.99,21.2,20.99c10.71,0,18.88-7.6,20.03-17.82h7.71v16.13c0,.54.44.99.99.99h.14c.54,0,.99-.44.99-.99v-16.16h10.77c.97,0,1.84-.05,2.7-.16l7.58,16.73c.16.35.51.58.9.58h.11c.72,0,1.19-.74.9-1.39l-7.38-16.35c5.79-1.51,8.76-5.84,8.76-11.2ZM61.77,35.15h-10.71V15.67h10.77c8.06,0,11.41,4.43,11.41,9.63s-3.35,9.85-11.47,9.85Z"/>
      <path d="M107.75,39.85c0,7.95-4.27,13.09-11.96,13.09s-11.96-5.14-11.96-13.09V14.66c0-.54-.44-.99-.99-.99h-.13c-.54,0-.99.44-.99.99v25.03c0,9.52,5.35,15.25,14.06,15.25s14.01-5.73,14.01-15.25V14.66c0-.54-.44-.99-.99-.99h-.08c-.54,0-.99.44-.99.99v25.2Z"/>
      <path d="M131.98,13.67h-11.51c-.54,0-.99.44-.99.99v38.6c0,.54.44.99.99.99h.08c.54,0,.99-.44.99-.99v-15.89h10.49c9.03,0,13.63-5.14,13.63-11.95s-4.65-11.74-13.69-11.74ZM132.04,35.36h-10.49V15.67h10.55c8.06,0,11.41,4.49,11.41,9.74s-3.35,9.95-11.47,9.95Z"/>
      <path d="M171.09,12.97c-12.01,0-21.15,9.25-21.15,20.99s9.14,20.99,21.15,20.99,21.2-9.19,21.2-20.99-9.09-20.99-21.2-20.99ZM171.09,52.94c-10.77,0-18.99-8.28-18.99-18.99s8.22-18.93,18.99-18.93,19.04,8.22,19.04,18.93-8.22,18.99-19.04,18.99Z"/>
      <path d="M341.64,39.05c0,4.96-2.75,8.36-7.6,8.36s-7.65-3.4-7.65-8.36V14.71c0-.54-.44-.99-.99-.99h-6.32c-.54,0-.99.44-.99.99v23.85c0,10.13,6.25,16.38,15.95,16.38s15.95-6.25,15.95-16.38V14.71c0-.54-.44-.99-.99-.99h-6.38c-.54,0-.99.44-.99.99v24.34Z"/>
      <path d="M355.1,20.62h7.53v32.53c0,.54.44.99.99.99h6.38c.54,0,.99-.44.99-.99V20.62h7.53c.54,0,.99-.44.99-.99v-4.92c0-.54-.44-.99-.99-.99h-23.41c-.54,0-.99.44-.99.99v4.92c0,.54.44.99.99.99Z"/>
      <path d="M402.47,12.97c-12.39,0-21.39,9-21.39,20.91s9,21.07,21.39,21.07,21.39-9.11,21.39-21.07-8.94-20.91-21.39-20.91ZM402.47,47.08c-7.6,0-12.93-5.6-12.93-13.1s5.34-13.2,12.93-13.2,12.88,5.61,12.88,13.2-5.28,13.1-12.88,13.1Z"/>
      <path d="M450.81,33.57v4.11c0,.54.44.99.99.99h10.38c-1.72,5.23-6.41,8.84-12.61,8.84-7.76,0-13.1-5.82-13.1-13.53s5.28-13.47,12.82-13.47c5.15,0,9.32,2.86,11.19,6.83.16.34.51.55.88.55h6.89c.68,0,1.16-.67.93-1.31-3.02-8.44-10.88-13.61-20.06-13.61-12.29,0-21.12,9.05-21.12,20.96s8.95,21.01,21.39,21.01c11.64,0,20.85-8.94,20.85-20.58,0-.15-.01-.49-.03-.84-.03-.52-.46-.94-.99-.94h-17.45c-.54,0-.99.44-.99.99Z"/>
      <path d="M483.47,13.72h-6.38c-.54,0-.99.44-.99.99v39.43h17.33c.54,0,.99-.44.99-.99v-4.92c0-.54-.44-.99-.99-.99h-8.98V14.71c0-.54-.44-.99-.99-.99Z"/>
      <path d="M560.57,28.92h-3.67c-3.23,0-4.79-1.83-4.79-3.99,0-2.37,1.56-4.2,4.79-4.2h14.7c.54,0,.99-.44.99-.99v-5.03c0-.54-.44-.99-.99-.99h-16.15c-7.28,0-12.18,4.47-12.18,11.05s4.9,10.89,11.96,10.89h3.88c5.44,0,7.01,2.75,7.01,5.61,0,3.02-2.05,5.87-7.06,5.87h-14.64c-.54,0-.99.44-.99.99v5.03c0,.54.44.99.99.99h15.99c9.65,0,14.33-5.82,14.33-12.77s-4.63-12.45-14.17-12.45Z"/>
      <path d="M594.97,28.92h-3.66c-3.23,0-4.8-1.83-4.8-3.99,0-2.37,1.56-4.2,4.8-4.2h14.69c.54,0,.99-.44.99-.99v-5.03c0-.54-.44-.99-.99-.99h-16.15c-7.27,0-12.18,4.47-12.18,11.05s4.91,10.89,11.96,10.89h3.88c5.44,0,7.01,2.75,7.01,5.61,0,3.02-2.05,5.87-7.06,5.87h-14.64c-.54,0-.99.44-.99.99v5.03c0,.54.44.99.99.99h15.99c9.65,0,14.33-5.82,14.33-12.77s-4.63-12.45-14.17-12.45Z"/>
      <path d="M299.57,13.72h-10.01c-.42,0-.79.26-.93.66l-13.61,38.44c-.23.64.25,1.32.93,1.32h6.26c.42,0,.79-.26.93-.66l3.43-9.69h18.11l3.43,9.69c.14.39.51.66.93.66h6.26c.68,0,1.16-.67.93-1.32l-13.61-38.44c-.14-.39-.51-.66-.93-.66h-2.11ZM288.87,37.27l5.71-16.11h2.08l5.71,16.11h-13.49Z"/>
      <path d="M522.7,13.72h-10.01c-.42,0-.79.26-.93.66l-13.61,38.44c-.23.64.25,1.32.93,1.32h6.26c.42,0,.79-.26.93-.66l3.43-9.69h18.11l3.43,9.69c.14.39.51.66.93.66h6.26c.68,0,1.16-.67.93-1.32l-13.61-38.44c-.14-.39-.51-.66-.93-.66h-2.11ZM512,37.27l5.71-16.11h2.08l5.71,16.11h-13.49Z"/>
    </g>
  </g>
</svg>